<svg xmlns="http://www.w3.org/2000/svg" xmlns:xlink="http://www.w3.org/1999/xlink" width="500" zoomAndPan="magnify" viewBox="0 0 375 374.999991" height="500" preserveAspectRatio="xMidYMid meet" version="1.0"><defs><g/></defs><g fill="#ffffff" fill-opacity="1"><g transform="translate(79.246824, 161.502529)"><g><path d="M 88.703125 -96.234375 L 88.703125 -66.296875 L 86.25 -66.296875 C 85.15625 -75.410156 82.757812 -82.265625 79.0625 -86.859375 C 75.375 -91.460938 69.796875 -93.765625 62.328125 -93.765625 L 56.3125 -93.765625 L 56.3125 -2.453125 L 69.03125 -2.453125 L 69.03125 0 L 22.28125 0 L 22.28125 -2.453125 L 34.984375 -2.453125 L 34.984375 -93.765625 L 29.390625 -93.765625 C 22.003906 -93.765625 16.394531 -91.597656 12.5625 -87.265625 C 8.738281 -82.941406 6.238281 -75.953125 5.0625 -66.296875 L 2.59375 -66.296875 L 2.59375 -96.234375 Z M 88.703125 -96.234375 "/></g></g></g><g fill="#ffffff" fill-opacity="1"><g transform="translate(197.063272, 161.502529)"><g><path d="M 92.8125 -47.5625 C 92.8125 -41.09375 91.648438 -34.847656 89.328125 -28.828125 C 87.003906 -22.816406 83.859375 -17.507812 79.890625 -12.90625 C 75.929688 -8.3125 71.304688 -4.644531 66.015625 -1.90625 C 60.734375 0.820312 55.085938 2.1875 49.078125 2.1875 C 43.054688 2.1875 37.398438 0.753906 32.109375 -2.109375 C 26.828125 -4.984375 22.25 -8.722656 18.375 -13.328125 C 14.507812 -17.929688 11.457031 -23.144531 9.21875 -28.96875 C 6.988281 -34.800781 5.875 -40.726562 5.875 -46.75 C 5.875 -54.851562 7.082031 -62.117188 9.5 -68.546875 C 11.914062 -74.972656 15.128906 -80.394531 19.140625 -84.8125 C 23.148438 -89.226562 27.75 -92.597656 32.9375 -94.921875 C 38.132812 -97.253906 43.515625 -98.421875 49.078125 -98.421875 C 55.453125 -98.421875 61.300781 -97.097656 66.625 -94.453125 C 71.957031 -91.804688 76.5625 -88.203125 80.4375 -83.640625 C 84.3125 -79.085938 87.34375 -73.710938 89.53125 -67.515625 C 91.71875 -61.328125 92.8125 -54.675781 92.8125 -47.5625 Z M 49.484375 -0.265625 C 53.304688 -0.265625 56.515625 -1.0625 59.109375 -2.65625 C 61.710938 -4.257812 63.8125 -6.90625 65.40625 -10.59375 C 67 -14.28125 68.132812 -19.15625 68.8125 -25.21875 C 69.5 -31.28125 69.84375 -38.820312 69.84375 -47.84375 C 69.84375 -56.59375 69.363281 -64.632812 68.40625 -71.96875 C 67.457031 -79.300781 65.660156 -85.019531 63.015625 -89.125 C 61.460938 -91.394531 59.660156 -93.097656 57.609375 -94.234375 C 55.554688 -95.378906 52.800781 -95.953125 49.34375 -95.953125 C 45.0625 -95.953125 41.757812 -95.039062 39.4375 -93.21875 C 37.113281 -91.394531 35.175781 -88.707031 33.625 -85.15625 C 31.800781 -81.050781 30.546875 -75.851562 29.859375 -69.5625 C 29.179688 -63.28125 28.84375 -56.085938 28.84375 -47.984375 C 28.84375 -39.140625 29.179688 -31.6875 29.859375 -25.625 C 30.546875 -19.570312 31.660156 -14.648438 33.203125 -10.859375 C 34.753906 -7.078125 36.851562 -4.363281 39.5 -2.71875 C 42.144531 -1.082031 45.472656 -0.265625 49.484375 -0.265625 Z M 49.484375 -0.265625 "/></g></g></g><g fill="#ffffff" fill-opacity="1"><g transform="translate(71.723387, 298.00252)"><g><path d="M 52.484375 -96.234375 C 59.316406 -96.234375 65.671875 -95.113281 71.546875 -92.875 C 77.429688 -90.644531 82.515625 -87.429688 86.796875 -83.234375 C 91.078125 -79.046875 94.425781 -73.941406 96.84375 -67.921875 C 99.257812 -61.910156 100.46875 -55.125 100.46875 -47.5625 C 100.46875 -43.832031 100.035156 -40.003906 99.171875 -36.078125 C 98.304688 -32.160156 96.960938 -28.332031 95.140625 -24.59375 C 93.316406 -20.863281 90.988281 -17.40625 88.15625 -14.21875 C 85.332031 -11.03125 81.960938 -8.34375 78.046875 -6.15625 C 74.585938 -4.238281 70.804688 -2.734375 66.703125 -1.640625 C 62.597656 -0.546875 57.769531 0 52.21875 0 L 4.78125 0 L 4.78125 -2.453125 L 15.859375 -2.453125 L 15.859375 -93.765625 L 4.78125 -93.765625 L 4.78125 -96.234375 Z M 49.078125 -2.453125 C 50.984375 -2.453125 52.960938 -2.613281 55.015625 -2.9375 C 57.066406 -3.257812 59.023438 -3.785156 60.890625 -4.515625 C 62.765625 -5.242188 64.519531 -6.242188 66.15625 -7.515625 C 67.789062 -8.796875 69.25 -10.347656 70.53125 -12.171875 C 71.625 -13.804688 72.601562 -15.625 73.46875 -17.625 C 74.332031 -19.632812 75.0625 -22.03125 75.65625 -24.8125 C 76.25 -27.59375 76.703125 -30.914062 77.015625 -34.78125 C 77.335938 -38.65625 77.5 -43.28125 77.5 -48.65625 C 77.5 -54.125 77.335938 -58.835938 77.015625 -62.796875 C 76.703125 -66.765625 76.269531 -70.160156 75.71875 -72.984375 C 75.175781 -75.816406 74.492188 -78.1875 73.671875 -80.09375 C 72.847656 -82.007812 71.890625 -83.695312 70.796875 -85.15625 C 66.515625 -90.894531 59.863281 -93.765625 50.84375 -93.765625 L 37.171875 -93.765625 L 37.171875 -2.453125 Z M 49.078125 -2.453125 "/></g></g></g><g fill="#ffffff" fill-opacity="1"><g transform="translate(204.574163, 298.00252)"><g><path d="M 92.8125 -47.5625 C 92.8125 -41.09375 91.648438 -34.847656 89.328125 -28.828125 C 87.003906 -22.816406 83.859375 -17.507812 79.890625 -12.90625 C 75.929688 -8.3125 71.304688 -4.644531 66.015625 -1.90625 C 60.734375 0.820312 55.085938 2.1875 49.078125 2.1875 C 43.054688 2.1875 37.398438 0.753906 32.109375 -2.109375 C 26.828125 -4.984375 22.25 -8.722656 18.375 -13.328125 C 14.507812 -17.929688 11.457031 -23.144531 9.21875 -28.96875 C 6.988281 -34.800781 5.875 -40.726562 5.875 -46.75 C 5.875 -54.851562 7.082031 -62.117188 9.5 -68.546875 C 11.914062 -74.972656 15.128906 -80.394531 19.140625 -84.8125 C 23.148438 -89.226562 27.75 -92.597656 32.9375 -94.921875 C 38.132812 -97.253906 43.515625 -98.421875 49.078125 -98.421875 C 55.453125 -98.421875 61.300781 -97.097656 66.625 -94.453125 C 71.957031 -91.804688 76.5625 -88.203125 80.4375 -83.640625 C 84.3125 -79.085938 87.34375 -73.710938 89.53125 -67.515625 C 91.71875 -61.328125 92.8125 -54.675781 92.8125 -47.5625 Z M 49.484375 -0.265625 C 53.304688 -0.265625 56.515625 -1.0625 59.109375 -2.65625 C 61.710938 -4.257812 63.8125 -6.90625 65.40625 -10.59375 C 67 -14.28125 68.132812 -19.15625 68.8125 -25.21875 C 69.5 -31.28125 69.84375 -38.820312 69.84375 -47.84375 C 69.84375 -56.59375 69.363281 -64.632812 68.40625 -71.96875 C 67.457031 -79.300781 65.660156 -85.019531 63.015625 -89.125 C 61.460938 -91.394531 59.660156 -93.097656 57.609375 -94.234375 C 55.554688 -95.378906 52.800781 -95.953125 49.34375 -95.953125 C 45.0625 -95.953125 41.757812 -95.039062 39.4375 -93.21875 C 37.113281 -91.394531 35.175781 -88.707031 33.625 -85.15625 C 31.800781 -81.050781 30.546875 -75.851562 29.859375 -69.5625 C 29.179688 -63.28125 28.84375 -56.085938 28.84375 -47.984375 C 28.84375 -39.140625 29.179688 -31.6875 29.859375 -25.625 C 30.546875 -19.570312 31.660156 -14.648438 33.203125 -10.859375 C 34.753906 -7.078125 36.851562 -4.363281 39.5 -2.71875 C 42.144531 -1.082031 45.472656 -0.265625 49.484375 -0.265625 Z M 49.484375 -0.265625 "/></g></g></g><path stroke-linecap="butt" transform="matrix(0, -0.75, 0.75, 0, 186.744412, 260.460921)" fill="none" stroke-linejoin="miter" d="M -0.0000216048 1.002242 L 194.578116 1.002242 " stroke="#ffffff" stroke-width="2" stroke-opacity="1" stroke-miterlimit="4"/><g fill="#ffffff" fill-opacity="1"><g transform="translate(89.718566, 186.941515)"><g><path d="M 0.59375 -1.453125 C 1.4375 -0.5 2.765625 0.1875 4.5625 0.1875 C 7.359375 0.1875 8.390625 -1.34375 8.390625 -2.859375 C 8.390625 -5.03125 6.46875 -5.5625 4.765625 -6.015625 C 3.453125 -6.375 2.25 -6.671875 2.25 -7.71875 C 2.25 -8.703125 3.140625 -9.359375 4.375 -9.359375 C 5.515625 -9.359375 6.59375 -8.984375 7.375 -8.125 L 8.15625 -9.0625 C 7.28125 -9.984375 6.0625 -10.515625 4.46875 -10.515625 C 2.4375 -10.515625 0.921875 -9.34375 0.921875 -7.640625 C 0.921875 -5.609375 2.765625 -5.140625 4.421875 -4.703125 C 5.796875 -4.328125 7.046875 -3.984375 7.046875 -2.75 C 7.046875 -1.953125 6.46875 -0.96875 4.609375 -0.96875 C 3.15625 -0.96875 2.03125 -1.671875 1.34375 -2.4375 Z M 0.59375 -1.453125 "/></g></g></g><g fill="#ffffff" fill-opacity="1"><g transform="translate(107.693204, 186.941515)"><g><path d="M 11.359375 0 L 11.359375 -10.359375 L 9.5 -10.359375 L 6.28125 -2.46875 L 3.0625 -10.359375 L 1.21875 -10.359375 L 1.21875 0 L 2.5 0 L 2.5 -8.625 L 6.015625 0 L 6.53125 0 L 10.0625 -8.625 L 10.0625 0 Z M 11.359375 0 "/></g></g></g><g fill="#ffffff" fill-opacity="1"><g transform="translate(129.127837, 186.941515)"><g><path d="M 10.078125 0 L 5.90625 -10.359375 L 4.296875 -10.359375 L 0.140625 0 L 1.5625 0 L 2.484375 -2.296875 L 7.734375 -2.296875 L 8.65625 0 Z M 7.34375 -3.453125 L 2.859375 -3.453125 L 5.109375 -9.203125 Z M 7.34375 -3.453125 "/></g></g></g><g fill="#ffffff" fill-opacity="1"><g transform="translate(148.219599, 186.941515)"><g><path d="M 8.734375 0 L 5.9375 -4.21875 C 7.34375 -4.34375 8.625 -5.375 8.625 -7.234375 C 8.625 -9.140625 7.265625 -10.359375 5.375 -10.359375 L 1.21875 -10.359375 L 1.21875 0 L 2.5 0 L 2.5 -4.109375 L 4.5625 -4.109375 L 7.203125 0 Z M 7.28125 -7.234375 C 7.28125 -6.078125 6.453125 -5.25 5.21875 -5.25 L 2.5 -5.25 L 2.5 -9.203125 L 5.21875 -9.203125 C 6.453125 -9.203125 7.28125 -8.40625 7.28125 -7.234375 Z M 7.28125 -7.234375 "/></g></g></g><g fill="#ffffff" fill-opacity="1"><g transform="translate(166.53558, 186.941515)"><g><path d="M 5.0625 0 L 5.0625 -9.203125 L 8.359375 -9.203125 L 8.359375 -10.359375 L 0.5 -10.359375 L 0.5 -9.203125 L 3.78125 -9.203125 L 3.78125 0 Z M 5.0625 0 "/></g></g></g><g fill="#ffffff" fill-opacity="1"><g transform="translate(184.261963, 186.941515)"><g/></g></g><g fill="#ffffff" fill-opacity="1"><g transform="translate(197.147454, 186.941515)"><g><path d="M 5.0625 0 L 5.0625 -9.203125 L 8.359375 -9.203125 L 8.359375 -10.359375 L 0.5 -10.359375 L 0.5 -9.203125 L 3.78125 -9.203125 L 3.78125 0 Z M 5.0625 0 "/></g></g></g><g fill="#ffffff" fill-opacity="1"><g transform="translate(214.873836, 186.941515)"><g><path d="M 10.078125 0 L 5.90625 -10.359375 L 4.296875 -10.359375 L 0.140625 0 L 1.5625 0 L 2.484375 -2.296875 L 7.734375 -2.296875 L 8.65625 0 Z M 7.34375 -3.453125 L 2.859375 -3.453125 L 5.109375 -9.203125 Z M 7.34375 -3.453125 "/></g></g></g><g fill="#ffffff" fill-opacity="1"><g transform="translate(233.965601, 186.941515)"><g><path d="M 7.3125 0 L 7.3125 -1.15625 L 2.5 -1.15625 L 2.5 -10.359375 L 1.21875 -10.359375 L 1.21875 0 Z M 7.3125 0 "/></g></g></g><g fill="#ffffff" fill-opacity="1"><g transform="translate(250.761041, 186.941515)"><g><path d="M 8 0 L 8 -1.15625 L 2.5 -1.15625 L 2.5 -4.71875 L 7.890625 -4.71875 L 7.890625 -5.875 L 2.5 -5.875 L 2.5 -9.203125 L 8 -9.203125 L 8 -10.359375 L 1.21875 -10.359375 L 1.21875 0 Z M 8 0 "/></g></g></g><g fill="#ffffff" fill-opacity="1"><g transform="translate(268.471916, 186.941515)"><g><path d="M 9.78125 0 L 9.78125 -10.359375 L 8.5 -10.359375 L 8.5 -2.171875 L 2.53125 -10.359375 L 1.21875 -10.359375 L 1.21875 0 L 2.5 0 L 2.5 -8.359375 L 8.546875 0 Z M 9.78125 0 "/></g></g></g><g fill="#ffffff" fill-opacity="1"><g transform="translate(288.339465, 186.941515)"><g><path d="M 5.0625 0 L 5.0625 -9.203125 L 8.359375 -9.203125 L 8.359375 -10.359375 L 0.5 -10.359375 L 0.5 -9.203125 L 3.78125 -9.203125 L 3.78125 0 Z M 5.0625 0 "/></g></g></g></svg>